<svg width="16" height="16" viewBox="0 0 16 16" fill="none" xmlns="http://www.w3.org/2000/svg">
<path fill-rule="evenodd" clip-rule="evenodd" d="M7.99996 4.66667C8.73596 4.66667 9.33329 4.06933 9.33329 3.33333C9.33329 2.59733 8.73596 2 7.99996 2C7.26396 2 6.66663 2.59733 6.66663 3.33333C6.66663 4.06933 7.26396 4.66667 7.99996 4.66667ZM7.99996 6.66667C7.26396 6.66667 6.66663 7.264 6.66663 8C6.66663 8.736 7.26396 9.33333 7.99996 9.33333C8.73596 9.33333 9.33329 8.736 9.33329 8C9.33329 7.264 8.73596 6.66667 7.99996 6.66667ZM6.66663 12.6667C6.66663 11.9307 7.26396 11.3333 7.99996 11.3333C8.73596 11.3333 9.33329 11.9307 9.33329 12.6667C9.33329 13.4027 8.73596 14 7.99996 14C7.26396 14 6.66663 13.4027 6.66663 12.6667Z" fill="#1B1F29"/>
<mask id="mask0_748_99" style="mask-type:luminance" maskUnits="userSpaceOnUse" x="6" y="2" width="4" height="12">
<path fill-rule="evenodd" clip-rule="evenodd" d="M7.99996 4.66667C8.73596 4.66667 9.33329 4.06933 9.33329 3.33333C9.33329 2.59733 8.73596 2 7.99996 2C7.26396 2 6.66663 2.59733 6.66663 3.33333C6.66663 4.06933 7.26396 4.66667 7.99996 4.66667ZM7.99996 6.66667C7.26396 6.66667 6.66663 7.264 6.66663 8C6.66663 8.736 7.26396 9.33333 7.99996 9.33333C8.73596 9.33333 9.33329 8.736 9.33329 8C9.33329 7.264 8.73596 6.66667 7.99996 6.66667ZM6.66663 12.6667C6.66663 11.9307 7.26396 11.3333 7.99996 11.3333C8.73596 11.3333 9.33329 11.9307 9.33329 12.6667C9.33329 13.4027 8.73596 14 7.99996 14C7.26396 14 6.66663 13.4027 6.66663 12.6667Z" fill="white"/>
</mask>
<g mask="url(#mask0_748_99)">
<rect width="16" height="16" fill="#1B1F29"/>
</g>
</svg>
