<svg width="20" height="14" viewBox="0 0 20 14" fill="none" xmlns="http://www.w3.org/2000/svg">
<path fill-rule="evenodd" clip-rule="evenodd" d="M18 9.59957L15.191 6.99957L18 4.40057V9.59957ZM13 10.9996C13 11.5516 12.552 11.9996 12 11.9996H3C2.448 11.9996 2 11.5516 2 10.9996V2.99957C2 2.44857 2.448 1.99957 3 1.99957H12C12.552 1.99957 13 2.44857 13 2.99957V10.9996ZM19.012 2.14557C18.386 1.87257 17.66 1.99157 17.161 2.45157L15 4.45157V2.99957C15 1.34557 13.654 -0.000427246 12 -0.000427246H3C1.346 -0.000427246 0 1.34557 0 2.99957V10.9996C0 12.6546 1.346 13.9996 3 13.9996H12C13.654 13.9996 15 12.6546 15 10.9996V9.54857L17.161 11.5476C17.481 11.8446 17.896 11.9996 18.319 11.9996C18.553 11.9996 18.788 11.9526 19.012 11.8546C19.621 11.5886 20 11.0196 20 10.3706V3.62957C20 2.98057 19.621 2.41157 19.012 2.14557Z" fill="#5F6269"/>
</svg>
