<svg width="16" height="16" viewBox="0 0 16 16" fill="none" xmlns="http://www.w3.org/2000/svg">
<path d="M6.10201 7.73534C6.63201 7.73534 7.06134 7.14934 7.06134 6.42734C7.06134 5.70534 6.63201 5.11934 6.10201 5.11934C5.57201 5.11934 5.14267 5.70534 5.14267 6.42734C5.14267 7.14934 5.57201 7.73534 6.10201 7.73534ZM3.96601 8.64334C3.94867 8.43868 3.87868 12.122 8.00801 12.344C12.052 12.1773 12.052 8.64334 12.052 8.64334C8.00001 9.58735 3.96601 8.64334 3.96601 8.64334ZM11.5413 9.38201C11.5413 9.38201 11.0953 10.688 8.17401 10.688C5.83734 10.688 4.58201 9.91201 4.43601 9.38201C4.43601 9.38201 8.37734 10.0853 11.5413 9.38201ZM7.86934 0.674011C3.73934 0.674011 0.652008 4.02201 0.652008 8.15201C0.652008 12.282 3.86934 15.326 7.99934 15.326C12.1293 15.326 15.3467 12.282 15.3467 8.15201C15.3473 4.02201 11.9993 0.674011 7.86934 0.674011ZM8.00001 14.236C4.48468 14.236 1.74601 11.6453 1.74601 8.13001C1.74601 4.61468 4.37401 1.76468 7.88934 1.76468C11.4047 1.76468 14.2547 4.61468 14.2547 8.13001C14.254 11.6447 11.5153 14.236 8.00001 14.236ZM10.072 7.73534C10.602 7.73534 11.0313 7.14934 11.0313 6.42734C11.0313 5.70534 10.602 5.11934 10.072 5.11934C9.54201 5.11934 9.11267 5.70534 9.11267 6.42734C9.11267 7.14934 9.54201 7.73534 10.072 7.73534Z" fill="#5F6269"/>
</svg>
