<svg width="16" height="16" viewBox="0 0 16 16" fill="none" xmlns="http://www.w3.org/2000/svg">
<path d="M7.99959 13.9999C7.91185 14.0004 7.82488 13.9836 7.74365 13.9504C7.66243 13.9173 7.58855 13.8684 7.52626 13.8066L2.34626 8.61993C1.6965 7.96338 1.33203 7.07697 1.33203 6.15326C1.33203 5.22955 1.6965 4.34314 2.34626 3.68659C3.0011 3.0336 3.88814 2.66691 4.81292 2.66691C5.7377 2.66691 6.62475 3.0336 7.27959 3.68659L7.99959 4.40659L8.71959 3.68659C9.37443 3.0336 10.2615 2.66691 11.1863 2.66691C12.111 2.66691 12.9981 3.0336 13.6529 3.68659C14.3027 4.34314 14.6671 5.22955 14.6671 6.15326C14.6671 7.07697 14.3027 7.96338 13.6529 8.61993L8.47292 13.8066C8.41063 13.8684 8.33675 13.9173 8.25553 13.9504C8.1743 13.9836 8.08733 14.0004 7.99959 13.9999ZM4.81292 3.99993C4.53071 3.99865 4.25104 4.05338 3.99013 4.16095C3.72921 4.26852 3.49224 4.42679 3.29292 4.62659C2.8903 5.03134 2.66428 5.57903 2.66428 6.14993C2.66428 6.72083 2.8903 7.26851 3.29292 7.67326L7.99959 12.3866L12.7063 7.67326C13.1089 7.26851 13.3349 6.72083 13.3349 6.14993C13.3349 5.57903 13.1089 5.03134 12.7063 4.62659C12.2954 4.2384 11.7515 4.02213 11.1863 4.02213C10.621 4.02213 10.0771 4.2384 9.66626 4.62659L8.47292 5.82659C8.41095 5.88908 8.33721 5.93868 8.25597 5.97252C8.17473 6.00637 8.0876 6.02379 7.99959 6.02379C7.91158 6.02379 7.82444 6.00637 7.74321 5.97252C7.66197 5.93868 7.58823 5.88908 7.52626 5.82659L6.33292 4.62659C6.13361 4.42679 5.89663 4.26852 5.63572 4.16095C5.3748 4.05338 5.09514 3.99865 4.81292 3.99993Z" fill="black"/>
</svg>
