<svg width="20" height="15" viewBox="0 0 20 15" fill="none" xmlns="http://www.w3.org/2000/svg">
<path d="M18.2813 1.22503C17.9329 0.875428 17.5189 0.598039 17.0631 0.408769C16.6073 0.219499 16.1186 0.12207 15.625 0.12207C15.1315 0.12207 14.6428 0.219499 14.1869 0.408769C13.7311 0.598039 13.3171 0.875428 12.9688 1.22503L13.8563 2.11253C14.0889 1.87984 14.3652 1.69526 14.6692 1.56934C14.9732 1.44341 15.2991 1.37859 15.6281 1.37859C15.9572 1.37859 16.283 1.44341 16.5871 1.56934C16.8911 1.69526 17.1673 1.87984 17.4 2.11253C17.6327 2.34521 17.8173 2.62145 17.9432 2.92547C18.0691 3.22949 18.1339 3.55533 18.1339 3.8844C18.1339 4.21347 18.0691 4.53931 17.9432 4.84333C17.8173 5.14735 17.6327 5.42359 17.4 5.65628L12.4 10.6563C11.9309 11.1262 11.2943 11.3905 10.6303 11.3911C9.96635 11.3917 9.32932 11.1285 8.85939 10.6594C8.38946 10.1903 8.12512 9.55373 8.12454 8.88974C8.12395 8.22574 8.38716 7.58871 8.85626 7.11878L9.73751 6.23128L8.85626 5.34378L7.96876 6.23128C7.61916 6.57966 7.34177 6.99364 7.1525 7.44946C6.96323 7.90527 6.8658 8.39397 6.8658 8.88753C6.8658 9.38108 6.96323 9.86978 7.1525 10.3256C7.34177 10.7814 7.61916 11.1954 7.96876 11.5438C8.67594 12.2419 9.63131 12.6308 10.625 12.625C11.1205 12.6271 11.6114 12.5309 12.0695 12.3421C12.5275 12.1533 12.9436 11.8756 13.2938 11.525L18.2938 6.52503C18.9944 5.82025 19.3866 4.86619 19.3842 3.87244C19.3819 2.87869 18.9852 1.9265 18.2813 1.22503Z" fill="#5F6269"/>
<path d="M2.61876 12.5125C2.38538 12.2802 2.20019 12.0041 2.07383 11.7C1.94746 11.396 1.88241 11.0699 1.88241 10.7407C1.88241 10.4114 1.94746 10.0853 2.07383 9.78126C2.20019 9.47719 2.38538 9.20107 2.61876 8.96878L7.61876 3.96878C7.85106 3.7354 8.12717 3.55021 8.43124 3.42384C8.73531 3.29748 9.06135 3.23243 9.39064 3.23243C9.71992 3.23243 10.046 3.29748 10.35 3.42384C10.6541 3.55021 10.9302 3.7354 11.1625 3.96878C11.3944 4.2029 11.577 4.48119 11.6994 4.78716C11.8217 5.09313 11.8815 5.42055 11.875 5.75003C11.8769 6.08053 11.8133 6.40813 11.6878 6.71388C11.5622 7.01962 11.3773 7.29745 11.1438 7.53128L9.81876 8.87503L10.7063 9.76253L12.0313 8.43753C12.7366 7.73222 13.1328 6.77561 13.1328 5.77815C13.1328 4.78069 12.7366 3.82409 12.0313 3.11878C11.326 2.41347 10.3693 2.01723 9.37189 2.01723C8.37443 2.01723 7.41782 2.41347 6.71251 3.11878L1.71251 8.11878C1.36197 8.46728 1.08379 8.88164 0.893964 9.33804C0.704138 9.79443 0.606415 10.2839 0.606415 10.7782C0.606415 11.2725 0.704138 11.7619 0.893964 12.2183C1.08379 12.6747 1.36197 13.089 1.71251 13.4375C2.42428 14.1303 3.38182 14.5124 4.37501 14.5C5.37695 14.501 6.33858 14.1055 7.05001 13.4L6.16251 12.5125C5.93022 12.7459 5.6541 12.9311 5.35003 13.0575C5.04596 13.1838 4.71992 13.2489 4.39064 13.2489C4.06135 13.2489 3.73531 13.1838 3.43124 13.0575C3.12717 12.9311 2.85106 12.7459 2.61876 12.5125Z" fill="#5F6269"/>
</svg>
