<svg width="16" height="18" viewBox="0 0 16 18" fill="none" xmlns="http://www.w3.org/2000/svg">
<path d="M3.76467 3.17647V2.11558C3.76467 0.945969 4.71138 0 5.88373 0H13.2927C14.462 0 15.4117 0.949029 15.4117 2.11594V12.7076C15.4117 13.8773 14.465 14.8235 13.2927 14.8235H12.2352V15.884C12.2352 17.0538 11.2886 18 10.1162 18H2.70725C1.53764 18 0.588196 17.0519 0.588196 15.8844V5.29205C0.588196 4.12244 1.53491 3.17647 2.70725 3.17647H3.76467ZM11.1764 15.884V5.29241C11.1764 4.71044 10.7009 4.23529 10.1162 4.23529H2.70725C2.11949 4.23529 1.64701 4.70738 1.64701 5.29205V15.8844C1.64701 16.4668 2.12208 16.9412 2.70725 16.9412H10.1162C10.704 16.9412 11.1764 16.4689 11.1764 15.884ZM12.2353 13.7647H13.2927C13.8804 13.7647 14.3529 13.2925 14.3529 12.7076V2.11594C14.3529 1.53397 13.8774 1.05881 13.2927 1.05881H5.88373C5.29596 1.05881 4.82351 1.53094 4.82351 2.11558V3.17647H10.1162C11.2855 3.17647 12.2353 4.1255 12.2353 5.29241V13.7647ZM6.41174 11.1176C5.096 11.1176 4.02937 10.051 4.02937 8.73528C4.02937 7.41952 5.096 6.35292 6.41174 6.35292C7.72747 6.35292 8.7941 7.41952 8.7941 8.73528C8.7941 10.051 7.72747 11.1176 6.41174 11.1176ZM6.41174 10.0588C7.14271 10.0588 7.73526 9.46625 7.73526 8.73531C7.73526 8.00434 7.14268 7.41179 6.41174 7.41179C5.68079 7.41179 5.08822 8.00437 5.08822 8.73531C5.08822 9.46625 5.68076 10.0588 6.41174 10.0588ZM3.76467 13.2353C3.47228 13.2353 3.23526 12.9983 3.23526 12.7059C3.23526 12.4135 3.47228 12.1765 3.76467 12.1765H9.05877C9.35117 12.1765 9.58818 12.4135 9.58818 12.7059C9.58818 12.9983 9.35117 13.2353 9.05877 13.2353H3.76467ZM5.08822 15.3529C4.79582 15.3529 4.55881 15.1159 4.55881 14.8235C4.55881 14.5312 4.79582 14.2941 5.08822 14.2941H7.73529C8.02768 14.2941 8.26469 14.5312 8.26469 14.8235C8.26469 15.1159 8.02768 15.3529 7.73529 15.3529H5.08822Z" fill="#5F6269" stroke="#5F6269" stroke-width="0.2"/>
</svg>
